<?xml version="1.0" encoding="utf-8" standalone="no"?>
<!DOCTYPE svg PUBLIC "-//W3C//DTD SVG 1.1//EN"
  "http://www.w3.org/Graphics/SVG/1.1/DTD/svg11.dtd">
<svg height="345.6pt" version="1.1" viewBox="0 0 460.8 345.6" width="460.8pt" xmlns="http://www.w3.org/2000/svg" xmlns:xlink="http://www.w3.org/1999/xlink">
 <metadata>
  <rdf:RDF xmlns:cc="http://creativecommons.org/ns#" xmlns:dc="http://purl.org/dc/elements/1.1/" xmlns:rdf="http://www.w3.org/1999/02/22-rdf-syntax-ns#">
   <cc:Work>
    <dc:type rdf:resource="http://purl.org/dc/dcmitype/StillImage"/>
    <dc:date>2021-10-04T03:57:04.895699</dc:date>
    <dc:format>image/svg+xml</dc:format>
    <dc:creator>
     <cc:Agent>
      <dc:title>Matplotlib v3.4.3, https://matplotlib.org/</dc:title>
     </cc:Agent>
    </dc:creator>
   </cc:Work>
  </rdf:RDF>
 </metadata>
 <defs>
  <style type="text/css">*{stroke-linecap:butt;stroke-linejoin:round;}</style>
 </defs>
 <g id="figure_1">
  <g id="patch_1">
   <path d="M 0 345.6 
L 460.8 345.6 
L 460.8 0 
L 0 0 
z
" style="fill:#ffffff;"/>
  </g>
  <g id="axes_1">
   <g id="patch_2">
    <path d="M 57.6 307.584 
L 414.72 307.584 
L 414.72 41.472 
L 57.6 41.472 
z
" style="fill:#ffffff;"/>
   </g>
   <g id="matplotlib.axis_1">
    <g id="xtick_1">
     <g id="line2d_1">
      <path clip-path="url(#pe7d8d5e813)" d="M 73.832727 307.584 
L 73.832727 41.472 
" style="fill:none;stroke:#b0b0b0;stroke-linecap:square;stroke-width:0.8;"/>
     </g>
     <g id="line2d_2">
      <defs>
       <path d="M 0 0 
L 0 3.5 
" id="mb805146009" style="stroke:#000000;stroke-width:0.8;"/>
      </defs>
      <g>
       <use style="stroke:#000000;stroke-width:0.8;" x="73.832727" xlink:href="#mb805146009" y="307.584"/>
      </g>
     </g>
     <g id="text_1">
      <!-- 0 -->
      <g transform="translate(70.651477 322.182437)scale(0.1 -0.1)">
       <defs>
        <path d="M 2034 4250 
Q 1547 4250 1301 3770 
Q 1056 3291 1056 2328 
Q 1056 1369 1301 889 
Q 1547 409 2034 409 
Q 2525 409 2770 889 
Q 3016 1369 3016 2328 
Q 3016 3291 2770 3770 
Q 2525 4250 2034 4250 
z
M 2034 4750 
Q 2819 4750 3233 4129 
Q 3647 3509 3647 2328 
Q 3647 1150 3233 529 
Q 2819 -91 2034 -91 
Q 1250 -91 836 529 
Q 422 1150 422 2328 
Q 422 3509 836 4129 
Q 1250 4750 2034 4750 
z
" id="DejaVuSans-30" transform="scale(0.015625)"/>
       </defs>
       <use xlink:href="#DejaVuSans-30"/>
      </g>
     </g>
    </g>
    <g id="xtick_2">
     <g id="line2d_3">
      <path clip-path="url(#pe7d8d5e813)" d="M 126.196364 307.584 
L 126.196364 41.472 
" style="fill:none;stroke:#b0b0b0;stroke-linecap:square;stroke-width:0.8;"/>
     </g>
     <g id="line2d_4">
      <g>
       <use style="stroke:#000000;stroke-width:0.8;" x="126.196364" xlink:href="#mb805146009" y="307.584"/>
      </g>
     </g>
     <g id="text_2">
      <!-- 10 -->
      <g transform="translate(119.833864 322.182437)scale(0.1 -0.1)">
       <defs>
        <path d="M 794 531 
L 1825 531 
L 1825 4091 
L 703 3866 
L 703 4441 
L 1819 4666 
L 2450 4666 
L 2450 531 
L 3481 531 
L 3481 0 
L 794 0 
L 794 531 
z
" id="DejaVuSans-31" transform="scale(0.015625)"/>
       </defs>
       <use xlink:href="#DejaVuSans-31"/>
       <use x="63.623047" xlink:href="#DejaVuSans-30"/>
      </g>
     </g>
    </g>
    <g id="xtick_3">
     <g id="line2d_5">
      <path clip-path="url(#pe7d8d5e813)" d="M 178.56 307.584 
L 178.56 41.472 
" style="fill:none;stroke:#b0b0b0;stroke-linecap:square;stroke-width:0.8;"/>
     </g>
     <g id="line2d_6">
      <g>
       <use style="stroke:#000000;stroke-width:0.8;" x="178.56" xlink:href="#mb805146009" y="307.584"/>
      </g>
     </g>
     <g id="text_3">
      <!-- 20 -->
      <g transform="translate(172.1975 322.182437)scale(0.1 -0.1)">
       <defs>
        <path d="M 1228 531 
L 3431 531 
L 3431 0 
L 469 0 
L 469 531 
Q 828 903 1448 1529 
Q 2069 2156 2228 2338 
Q 2531 2678 2651 2914 
Q 2772 3150 2772 3378 
Q 2772 3750 2511 3984 
Q 2250 4219 1831 4219 
Q 1534 4219 1204 4116 
Q 875 4013 500 3803 
L 500 4441 
Q 881 4594 1212 4672 
Q 1544 4750 1819 4750 
Q 2544 4750 2975 4387 
Q 3406 4025 3406 3419 
Q 3406 3131 3298 2873 
Q 3191 2616 2906 2266 
Q 2828 2175 2409 1742 
Q 1991 1309 1228 531 
z
" id="DejaVuSans-32" transform="scale(0.015625)"/>
       </defs>
       <use xlink:href="#DejaVuSans-32"/>
       <use x="63.623047" xlink:href="#DejaVuSans-30"/>
      </g>
     </g>
    </g>
    <g id="xtick_4">
     <g id="line2d_7">
      <path clip-path="url(#pe7d8d5e813)" d="M 230.923636 307.584 
L 230.923636 41.472 
" style="fill:none;stroke:#b0b0b0;stroke-linecap:square;stroke-width:0.8;"/>
     </g>
     <g id="line2d_8">
      <g>
       <use style="stroke:#000000;stroke-width:0.8;" x="230.923636" xlink:href="#mb805146009" y="307.584"/>
      </g>
     </g>
     <g id="text_4">
      <!-- 30 -->
      <g transform="translate(224.561136 322.182437)scale(0.1 -0.1)">
       <defs>
        <path d="M 2597 2516 
Q 3050 2419 3304 2112 
Q 3559 1806 3559 1356 
Q 3559 666 3084 287 
Q 2609 -91 1734 -91 
Q 1441 -91 1130 -33 
Q 819 25 488 141 
L 488 750 
Q 750 597 1062 519 
Q 1375 441 1716 441 
Q 2309 441 2620 675 
Q 2931 909 2931 1356 
Q 2931 1769 2642 2001 
Q 2353 2234 1838 2234 
L 1294 2234 
L 1294 2753 
L 1863 2753 
Q 2328 2753 2575 2939 
Q 2822 3125 2822 3475 
Q 2822 3834 2567 4026 
Q 2313 4219 1838 4219 
Q 1578 4219 1281 4162 
Q 984 4106 628 3988 
L 628 4550 
Q 988 4650 1302 4700 
Q 1616 4750 1894 4750 
Q 2613 4750 3031 4423 
Q 3450 4097 3450 3541 
Q 3450 3153 3228 2886 
Q 3006 2619 2597 2516 
z
" id="DejaVuSans-33" transform="scale(0.015625)"/>
       </defs>
       <use xlink:href="#DejaVuSans-33"/>
       <use x="63.623047" xlink:href="#DejaVuSans-30"/>
      </g>
     </g>
    </g>
    <g id="xtick_5">
     <g id="line2d_9">
      <path clip-path="url(#pe7d8d5e813)" d="M 283.287273 307.584 
L 283.287273 41.472 
" style="fill:none;stroke:#b0b0b0;stroke-linecap:square;stroke-width:0.8;"/>
     </g>
     <g id="line2d_10">
      <g>
       <use style="stroke:#000000;stroke-width:0.8;" x="283.287273" xlink:href="#mb805146009" y="307.584"/>
      </g>
     </g>
     <g id="text_5">
      <!-- 40 -->
      <g transform="translate(276.924773 322.182437)scale(0.1 -0.1)">
       <defs>
        <path d="M 2419 4116 
L 825 1625 
L 2419 1625 
L 2419 4116 
z
M 2253 4666 
L 3047 4666 
L 3047 1625 
L 3713 1625 
L 3713 1100 
L 3047 1100 
L 3047 0 
L 2419 0 
L 2419 1100 
L 313 1100 
L 313 1709 
L 2253 4666 
z
" id="DejaVuSans-34" transform="scale(0.015625)"/>
       </defs>
       <use xlink:href="#DejaVuSans-34"/>
       <use x="63.623047" xlink:href="#DejaVuSans-30"/>
      </g>
     </g>
    </g>
    <g id="xtick_6">
     <g id="line2d_11">
      <path clip-path="url(#pe7d8d5e813)" d="M 335.650909 307.584 
L 335.650909 41.472 
" style="fill:none;stroke:#b0b0b0;stroke-linecap:square;stroke-width:0.8;"/>
     </g>
     <g id="line2d_12">
      <g>
       <use style="stroke:#000000;stroke-width:0.8;" x="335.650909" xlink:href="#mb805146009" y="307.584"/>
      </g>
     </g>
     <g id="text_6">
      <!-- 50 -->
      <g transform="translate(329.288409 322.182437)scale(0.1 -0.1)">
       <defs>
        <path d="M 691 4666 
L 3169 4666 
L 3169 4134 
L 1269 4134 
L 1269 2991 
Q 1406 3038 1543 3061 
Q 1681 3084 1819 3084 
Q 2600 3084 3056 2656 
Q 3513 2228 3513 1497 
Q 3513 744 3044 326 
Q 2575 -91 1722 -91 
Q 1428 -91 1123 -41 
Q 819 9 494 109 
L 494 744 
Q 775 591 1075 516 
Q 1375 441 1709 441 
Q 2250 441 2565 725 
Q 2881 1009 2881 1497 
Q 2881 1984 2565 2268 
Q 2250 2553 1709 2553 
Q 1456 2553 1204 2497 
Q 953 2441 691 2322 
L 691 4666 
z
" id="DejaVuSans-35" transform="scale(0.015625)"/>
       </defs>
       <use xlink:href="#DejaVuSans-35"/>
       <use x="63.623047" xlink:href="#DejaVuSans-30"/>
      </g>
     </g>
    </g>
    <g id="xtick_7">
     <g id="line2d_13">
      <path clip-path="url(#pe7d8d5e813)" d="M 388.014545 307.584 
L 388.014545 41.472 
" style="fill:none;stroke:#b0b0b0;stroke-linecap:square;stroke-width:0.8;"/>
     </g>
     <g id="line2d_14">
      <g>
       <use style="stroke:#000000;stroke-width:0.8;" x="388.014545" xlink:href="#mb805146009" y="307.584"/>
      </g>
     </g>
     <g id="text_7">
      <!-- 60 -->
      <g transform="translate(381.652045 322.182437)scale(0.1 -0.1)">
       <defs>
        <path d="M 2113 2584 
Q 1688 2584 1439 2293 
Q 1191 2003 1191 1497 
Q 1191 994 1439 701 
Q 1688 409 2113 409 
Q 2538 409 2786 701 
Q 3034 994 3034 1497 
Q 3034 2003 2786 2293 
Q 2538 2584 2113 2584 
z
M 3366 4563 
L 3366 3988 
Q 3128 4100 2886 4159 
Q 2644 4219 2406 4219 
Q 1781 4219 1451 3797 
Q 1122 3375 1075 2522 
Q 1259 2794 1537 2939 
Q 1816 3084 2150 3084 
Q 2853 3084 3261 2657 
Q 3669 2231 3669 1497 
Q 3669 778 3244 343 
Q 2819 -91 2113 -91 
Q 1303 -91 875 529 
Q 447 1150 447 2328 
Q 447 3434 972 4092 
Q 1497 4750 2381 4750 
Q 2619 4750 2861 4703 
Q 3103 4656 3366 4563 
z
" id="DejaVuSans-36" transform="scale(0.015625)"/>
       </defs>
       <use xlink:href="#DejaVuSans-36"/>
       <use x="63.623047" xlink:href="#DejaVuSans-30"/>
      </g>
     </g>
    </g>
   </g>
   <g id="matplotlib.axis_2">
    <g id="ytick_1">
     <g id="line2d_15">
      <path clip-path="url(#pe7d8d5e813)" d="M 57.6 295.490049 
L 414.72 295.490049 
" style="fill:none;stroke:#b0b0b0;stroke-linecap:square;stroke-width:0.8;"/>
     </g>
     <g id="line2d_16">
      <defs>
       <path d="M 0 0 
L -3.5 0 
" id="mbec2b8ea5d" style="stroke:#000000;stroke-width:0.8;"/>
      </defs>
      <g>
       <use style="stroke:#000000;stroke-width:0.8;" x="57.6" xlink:href="#mbec2b8ea5d" y="295.490049"/>
      </g>
     </g>
     <g id="text_8">
      <!-- 0 -->
      <g transform="translate(44.2375 299.289267)scale(0.1 -0.1)">
       <use xlink:href="#DejaVuSans-30"/>
      </g>
     </g>
    </g>
    <g id="ytick_2">
     <g id="line2d_17">
      <path clip-path="url(#pe7d8d5e813)" d="M 57.6 254.519643 
L 414.72 254.519643 
" style="fill:none;stroke:#b0b0b0;stroke-linecap:square;stroke-width:0.8;"/>
     </g>
     <g id="line2d_18">
      <g>
       <use style="stroke:#000000;stroke-width:0.8;" x="57.6" xlink:href="#mbec2b8ea5d" y="254.519643"/>
      </g>
     </g>
     <g id="text_9">
      <!-- 20000 -->
      <g transform="translate(18.7875 258.318862)scale(0.1 -0.1)">
       <use xlink:href="#DejaVuSans-32"/>
       <use x="63.623047" xlink:href="#DejaVuSans-30"/>
       <use x="127.246094" xlink:href="#DejaVuSans-30"/>
       <use x="190.869141" xlink:href="#DejaVuSans-30"/>
       <use x="254.492188" xlink:href="#DejaVuSans-30"/>
      </g>
     </g>
    </g>
    <g id="ytick_3">
     <g id="line2d_19">
      <path clip-path="url(#pe7d8d5e813)" d="M 57.6 213.549238 
L 414.72 213.549238 
" style="fill:none;stroke:#b0b0b0;stroke-linecap:square;stroke-width:0.8;"/>
     </g>
     <g id="line2d_20">
      <g>
       <use style="stroke:#000000;stroke-width:0.8;" x="57.6" xlink:href="#mbec2b8ea5d" y="213.549238"/>
      </g>
     </g>
     <g id="text_10">
      <!-- 40000 -->
      <g transform="translate(18.7875 217.348457)scale(0.1 -0.1)">
       <use xlink:href="#DejaVuSans-34"/>
       <use x="63.623047" xlink:href="#DejaVuSans-30"/>
       <use x="127.246094" xlink:href="#DejaVuSans-30"/>
       <use x="190.869141" xlink:href="#DejaVuSans-30"/>
       <use x="254.492188" xlink:href="#DejaVuSans-30"/>
      </g>
     </g>
    </g>
    <g id="ytick_4">
     <g id="line2d_21">
      <path clip-path="url(#pe7d8d5e813)" d="M 57.6 172.578833 
L 414.72 172.578833 
" style="fill:none;stroke:#b0b0b0;stroke-linecap:square;stroke-width:0.8;"/>
     </g>
     <g id="line2d_22">
      <g>
       <use style="stroke:#000000;stroke-width:0.8;" x="57.6" xlink:href="#mbec2b8ea5d" y="172.578833"/>
      </g>
     </g>
     <g id="text_11">
      <!-- 60000 -->
      <g transform="translate(18.7875 176.378052)scale(0.1 -0.1)">
       <use xlink:href="#DejaVuSans-36"/>
       <use x="63.623047" xlink:href="#DejaVuSans-30"/>
       <use x="127.246094" xlink:href="#DejaVuSans-30"/>
       <use x="190.869141" xlink:href="#DejaVuSans-30"/>
       <use x="254.492188" xlink:href="#DejaVuSans-30"/>
      </g>
     </g>
    </g>
    <g id="ytick_5">
     <g id="line2d_23">
      <path clip-path="url(#pe7d8d5e813)" d="M 57.6 131.608428 
L 414.72 131.608428 
" style="fill:none;stroke:#b0b0b0;stroke-linecap:square;stroke-width:0.8;"/>
     </g>
     <g id="line2d_24">
      <g>
       <use style="stroke:#000000;stroke-width:0.8;" x="57.6" xlink:href="#mbec2b8ea5d" y="131.608428"/>
      </g>
     </g>
     <g id="text_12">
      <!-- 80000 -->
      <g transform="translate(18.7875 135.407647)scale(0.1 -0.1)">
       <defs>
        <path d="M 2034 2216 
Q 1584 2216 1326 1975 
Q 1069 1734 1069 1313 
Q 1069 891 1326 650 
Q 1584 409 2034 409 
Q 2484 409 2743 651 
Q 3003 894 3003 1313 
Q 3003 1734 2745 1975 
Q 2488 2216 2034 2216 
z
M 1403 2484 
Q 997 2584 770 2862 
Q 544 3141 544 3541 
Q 544 4100 942 4425 
Q 1341 4750 2034 4750 
Q 2731 4750 3128 4425 
Q 3525 4100 3525 3541 
Q 3525 3141 3298 2862 
Q 3072 2584 2669 2484 
Q 3125 2378 3379 2068 
Q 3634 1759 3634 1313 
Q 3634 634 3220 271 
Q 2806 -91 2034 -91 
Q 1263 -91 848 271 
Q 434 634 434 1313 
Q 434 1759 690 2068 
Q 947 2378 1403 2484 
z
M 1172 3481 
Q 1172 3119 1398 2916 
Q 1625 2713 2034 2713 
Q 2441 2713 2670 2916 
Q 2900 3119 2900 3481 
Q 2900 3844 2670 4047 
Q 2441 4250 2034 4250 
Q 1625 4250 1398 4047 
Q 1172 3844 1172 3481 
z
" id="DejaVuSans-38" transform="scale(0.015625)"/>
       </defs>
       <use xlink:href="#DejaVuSans-38"/>
       <use x="63.623047" xlink:href="#DejaVuSans-30"/>
       <use x="127.246094" xlink:href="#DejaVuSans-30"/>
       <use x="190.869141" xlink:href="#DejaVuSans-30"/>
       <use x="254.492188" xlink:href="#DejaVuSans-30"/>
      </g>
     </g>
    </g>
    <g id="ytick_6">
     <g id="line2d_25">
      <path clip-path="url(#pe7d8d5e813)" d="M 57.6 90.638023 
L 414.72 90.638023 
" style="fill:none;stroke:#b0b0b0;stroke-linecap:square;stroke-width:0.8;"/>
     </g>
     <g id="line2d_26">
      <g>
       <use style="stroke:#000000;stroke-width:0.8;" x="57.6" xlink:href="#mbec2b8ea5d" y="90.638023"/>
      </g>
     </g>
     <g id="text_13">
      <!-- 100000 -->
      <g transform="translate(12.425 94.437241)scale(0.1 -0.1)">
       <use xlink:href="#DejaVuSans-31"/>
       <use x="63.623047" xlink:href="#DejaVuSans-30"/>
       <use x="127.246094" xlink:href="#DejaVuSans-30"/>
       <use x="190.869141" xlink:href="#DejaVuSans-30"/>
       <use x="254.492188" xlink:href="#DejaVuSans-30"/>
       <use x="318.115234" xlink:href="#DejaVuSans-30"/>
      </g>
     </g>
    </g>
    <g id="ytick_7">
     <g id="line2d_27">
      <path clip-path="url(#pe7d8d5e813)" d="M 57.6 49.667617 
L 414.72 49.667617 
" style="fill:none;stroke:#b0b0b0;stroke-linecap:square;stroke-width:0.8;"/>
     </g>
     <g id="line2d_28">
      <g>
       <use style="stroke:#000000;stroke-width:0.8;" x="57.6" xlink:href="#mbec2b8ea5d" y="49.667617"/>
      </g>
     </g>
     <g id="text_14">
      <!-- 120000 -->
      <g transform="translate(12.425 53.466836)scale(0.1 -0.1)">
       <use xlink:href="#DejaVuSans-31"/>
       <use x="63.623047" xlink:href="#DejaVuSans-32"/>
       <use x="127.246094" xlink:href="#DejaVuSans-30"/>
       <use x="190.869141" xlink:href="#DejaVuSans-30"/>
       <use x="254.492188" xlink:href="#DejaVuSans-30"/>
       <use x="318.115234" xlink:href="#DejaVuSans-30"/>
      </g>
     </g>
    </g>
   </g>
   <g id="line2d_29">
    <path clip-path="url(#pe7d8d5e813)" d="M 73.832727 293.394412 
L 79.069091 289.201091 
L 84.305455 292.34557 
L 89.541818 286.054564 
L 94.778182 290.772306 
L 100.014545 281.334774 
L 105.250909 288.412411 
L 110.487273 274.255088 
L 115.723636 284.872568 
L 120.96 263.635558 
L 126.196364 279.562804 
L 131.432727 247.706265 
L 136.669091 271.598157 
L 141.905455 223.812325 
L 147.141818 259.651187 
L 152.378182 187.971414 
L 157.614545 241.730731 
L 162.850909 134.210049 
L 168.087273 214.850049 
L 173.323636 53.568 
L 178.56 174.529024 
L 183.796364 235.009536 
L 189.032727 265.249792 
L 194.269091 280.36992 
L 199.505455 250.127616 
L 204.741818 272.808832 
L 209.978182 284.14944 
L 215.214545 289.819744 
L 220.450909 292.654896 
L 225.687273 294.072473 
L 230.923636 294.781261 
L 236.16 295.135655 
L 241.396364 294.424818 
L 246.632727 294.957433 
L 251.869091 295.223741 
L 257.105455 295.356895 
L 262.341818 295.088539 
L 267.578182 295.289294 
L 272.814545 295.389671 
L 278.050909 295.186868 
L 283.287273 295.338458 
L 288.523636 295.414253 
L 293.76 295.260614 
L 298.996364 295.375331 
L 304.232727 295.43269 
L 309.469091 295.461369 
L 314.705455 295.475709 
L 319.941818 295.444981 
L 325.178182 295.467515 
L 330.414545 295.420399 
L 335.650909 295.455224 
L 340.887273 295.383525 
L 346.123636 295.436787 
L 351.36 295.463418 
L 356.596364 295.408108 
L 361.832727 295.449078 
L 367.069091 295.469563 
L 372.305455 295.479806 
L 377.541818 295.457272 
L 382.778182 295.47366 
L 388.014545 295.481854 
L 393.250909 295.485951 
L 398.487273 295.488 
" style="fill:none;stroke:#1f77b4;stroke-linecap:square;stroke-width:1.5;"/>
   </g>
   <g id="patch_3">
    <path d="M 57.6 307.584 
L 57.6 41.472 
" style="fill:none;stroke:#000000;stroke-linecap:square;stroke-linejoin:miter;stroke-width:0.8;"/>
   </g>
   <g id="patch_4">
    <path d="M 414.72 307.584 
L 414.72 41.472 
" style="fill:none;stroke:#000000;stroke-linecap:square;stroke-linejoin:miter;stroke-width:0.8;"/>
   </g>
   <g id="patch_5">
    <path d="M 57.6 307.584 
L 414.72 307.584 
" style="fill:none;stroke:#000000;stroke-linecap:square;stroke-linejoin:miter;stroke-width:0.8;"/>
   </g>
   <g id="patch_6">
    <path d="M 57.6 41.472 
L 414.72 41.472 
" style="fill:none;stroke:#000000;stroke-linecap:square;stroke-linejoin:miter;stroke-width:0.8;"/>
   </g>
   <g id="text_15">
    <!-- 1023 -->
    <g transform="translate(73.832727 293.394412)scale(0.0579 -0.0579)">
     <use xlink:href="#DejaVuSans-31"/>
     <use x="63.623047" xlink:href="#DejaVuSans-30"/>
     <use x="127.246094" xlink:href="#DejaVuSans-32"/>
     <use x="190.869141" xlink:href="#DejaVuSans-33"/>
    </g>
   </g>
   <g id="text_16">
    <!-- 3070 -->
    <g transform="translate(79.069091 289.201091)scale(0.0579 -0.0579)">
     <defs>
      <path d="M 525 4666 
L 3525 4666 
L 3525 4397 
L 1831 0 
L 1172 0 
L 2766 4134 
L 525 4134 
L 525 4666 
z
" id="DejaVuSans-37" transform="scale(0.015625)"/>
     </defs>
     <use xlink:href="#DejaVuSans-33"/>
     <use x="63.623047" xlink:href="#DejaVuSans-30"/>
     <use x="127.246094" xlink:href="#DejaVuSans-37"/>
     <use x="190.869141" xlink:href="#DejaVuSans-30"/>
    </g>
   </g>
   <g id="text_17">
    <!-- 1535 -->
    <g transform="translate(84.305455 292.34557)scale(0.0579 -0.0579)">
     <use xlink:href="#DejaVuSans-31"/>
     <use x="63.623047" xlink:href="#DejaVuSans-35"/>
     <use x="127.246094" xlink:href="#DejaVuSans-33"/>
     <use x="190.869141" xlink:href="#DejaVuSans-35"/>
    </g>
   </g>
   <g id="text_18">
    <!-- 4606 -->
    <g transform="translate(89.541818 286.054564)scale(0.0579 -0.0579)">
     <use xlink:href="#DejaVuSans-34"/>
     <use x="63.623047" xlink:href="#DejaVuSans-36"/>
     <use x="127.246094" xlink:href="#DejaVuSans-30"/>
     <use x="190.869141" xlink:href="#DejaVuSans-36"/>
    </g>
   </g>
   <g id="text_19">
    <!-- 2303 -->
    <g transform="translate(94.778182 290.772306)scale(0.0579 -0.0579)">
     <use xlink:href="#DejaVuSans-32"/>
     <use x="63.623047" xlink:href="#DejaVuSans-33"/>
     <use x="127.246094" xlink:href="#DejaVuSans-30"/>
     <use x="190.869141" xlink:href="#DejaVuSans-33"/>
    </g>
   </g>
   <g id="text_20">
    <!-- 6910 -->
    <g transform="translate(100.014545 281.334774)scale(0.0579 -0.0579)">
     <defs>
      <path d="M 703 97 
L 703 672 
Q 941 559 1184 500 
Q 1428 441 1663 441 
Q 2288 441 2617 861 
Q 2947 1281 2994 2138 
Q 2813 1869 2534 1725 
Q 2256 1581 1919 1581 
Q 1219 1581 811 2004 
Q 403 2428 403 3163 
Q 403 3881 828 4315 
Q 1253 4750 1959 4750 
Q 2769 4750 3195 4129 
Q 3622 3509 3622 2328 
Q 3622 1225 3098 567 
Q 2575 -91 1691 -91 
Q 1453 -91 1209 -44 
Q 966 3 703 97 
z
M 1959 2075 
Q 2384 2075 2632 2365 
Q 2881 2656 2881 3163 
Q 2881 3666 2632 3958 
Q 2384 4250 1959 4250 
Q 1534 4250 1286 3958 
Q 1038 3666 1038 3163 
Q 1038 2656 1286 2365 
Q 1534 2075 1959 2075 
z
" id="DejaVuSans-39" transform="scale(0.015625)"/>
     </defs>
     <use xlink:href="#DejaVuSans-36"/>
     <use x="63.623047" xlink:href="#DejaVuSans-39"/>
     <use x="127.246094" xlink:href="#DejaVuSans-31"/>
     <use x="190.869141" xlink:href="#DejaVuSans-30"/>
    </g>
   </g>
   <g id="text_21">
    <!-- 3455 -->
    <g transform="translate(105.250909 288.412411)scale(0.0579 -0.0579)">
     <use xlink:href="#DejaVuSans-33"/>
     <use x="63.623047" xlink:href="#DejaVuSans-34"/>
     <use x="127.246094" xlink:href="#DejaVuSans-35"/>
     <use x="190.869141" xlink:href="#DejaVuSans-35"/>
    </g>
   </g>
   <g id="text_22">
    <!-- 10366 -->
    <g transform="translate(110.487273 274.255088)scale(0.0579 -0.0579)">
     <use xlink:href="#DejaVuSans-31"/>
     <use x="63.623047" xlink:href="#DejaVuSans-30"/>
     <use x="127.246094" xlink:href="#DejaVuSans-33"/>
     <use x="190.869141" xlink:href="#DejaVuSans-36"/>
     <use x="254.492188" xlink:href="#DejaVuSans-36"/>
    </g>
   </g>
   <g id="text_23">
    <!-- 5183 -->
    <g transform="translate(115.723636 284.872568)scale(0.0579 -0.0579)">
     <use xlink:href="#DejaVuSans-35"/>
     <use x="63.623047" xlink:href="#DejaVuSans-31"/>
     <use x="127.246094" xlink:href="#DejaVuSans-38"/>
     <use x="190.869141" xlink:href="#DejaVuSans-33"/>
    </g>
   </g>
   <g id="text_24">
    <!-- 15550 -->
    <g transform="translate(120.96 263.635558)scale(0.0579 -0.0579)">
     <use xlink:href="#DejaVuSans-31"/>
     <use x="63.623047" xlink:href="#DejaVuSans-35"/>
     <use x="127.246094" xlink:href="#DejaVuSans-35"/>
     <use x="190.869141" xlink:href="#DejaVuSans-35"/>
     <use x="254.492188" xlink:href="#DejaVuSans-30"/>
    </g>
   </g>
   <g id="text_25">
    <!-- 7775 -->
    <g transform="translate(126.196364 279.562804)scale(0.0579 -0.0579)">
     <use xlink:href="#DejaVuSans-37"/>
     <use x="63.623047" xlink:href="#DejaVuSans-37"/>
     <use x="127.246094" xlink:href="#DejaVuSans-37"/>
     <use x="190.869141" xlink:href="#DejaVuSans-35"/>
    </g>
   </g>
   <g id="text_26">
    <!-- 23326 -->
    <g transform="translate(131.432727 247.706265)scale(0.0579 -0.0579)">
     <use xlink:href="#DejaVuSans-32"/>
     <use x="63.623047" xlink:href="#DejaVuSans-33"/>
     <use x="127.246094" xlink:href="#DejaVuSans-33"/>
     <use x="190.869141" xlink:href="#DejaVuSans-32"/>
     <use x="254.492188" xlink:href="#DejaVuSans-36"/>
    </g>
   </g>
   <g id="text_27">
    <!-- 11663 -->
    <g transform="translate(136.669091 271.598157)scale(0.0579 -0.0579)">
     <use xlink:href="#DejaVuSans-31"/>
     <use x="63.623047" xlink:href="#DejaVuSans-31"/>
     <use x="127.246094" xlink:href="#DejaVuSans-36"/>
     <use x="190.869141" xlink:href="#DejaVuSans-36"/>
     <use x="254.492188" xlink:href="#DejaVuSans-33"/>
    </g>
   </g>
   <g id="text_28">
    <!-- 34990 -->
    <g transform="translate(141.905455 223.812325)scale(0.0579 -0.0579)">
     <use xlink:href="#DejaVuSans-33"/>
     <use x="63.623047" xlink:href="#DejaVuSans-34"/>
     <use x="127.246094" xlink:href="#DejaVuSans-39"/>
     <use x="190.869141" xlink:href="#DejaVuSans-39"/>
     <use x="254.492188" xlink:href="#DejaVuSans-30"/>
    </g>
   </g>
   <g id="text_29">
    <!-- 17495 -->
    <g transform="translate(147.141818 259.651187)scale(0.0579 -0.0579)">
     <use xlink:href="#DejaVuSans-31"/>
     <use x="63.623047" xlink:href="#DejaVuSans-37"/>
     <use x="127.246094" xlink:href="#DejaVuSans-34"/>
     <use x="190.869141" xlink:href="#DejaVuSans-39"/>
     <use x="254.492188" xlink:href="#DejaVuSans-35"/>
    </g>
   </g>
   <g id="text_30">
    <!-- 52486 -->
    <g transform="translate(152.378182 187.971414)scale(0.0579 -0.0579)">
     <use xlink:href="#DejaVuSans-35"/>
     <use x="63.623047" xlink:href="#DejaVuSans-32"/>
     <use x="127.246094" xlink:href="#DejaVuSans-34"/>
     <use x="190.869141" xlink:href="#DejaVuSans-38"/>
     <use x="254.492188" xlink:href="#DejaVuSans-36"/>
    </g>
   </g>
   <g id="text_31">
    <!-- 26243 -->
    <g transform="translate(157.614545 241.730731)scale(0.0579 -0.0579)">
     <use xlink:href="#DejaVuSans-32"/>
     <use x="63.623047" xlink:href="#DejaVuSans-36"/>
     <use x="127.246094" xlink:href="#DejaVuSans-32"/>
     <use x="190.869141" xlink:href="#DejaVuSans-34"/>
     <use x="254.492188" xlink:href="#DejaVuSans-33"/>
    </g>
   </g>
   <g id="text_32">
    <!-- 78730 -->
    <g transform="translate(162.850909 134.210049)scale(0.0579 -0.0579)">
     <use xlink:href="#DejaVuSans-37"/>
     <use x="63.623047" xlink:href="#DejaVuSans-38"/>
     <use x="127.246094" xlink:href="#DejaVuSans-37"/>
     <use x="190.869141" xlink:href="#DejaVuSans-33"/>
     <use x="254.492188" xlink:href="#DejaVuSans-30"/>
    </g>
   </g>
   <g id="text_33">
    <!-- 39365 -->
    <g transform="translate(168.087273 214.850049)scale(0.0579 -0.0579)">
     <use xlink:href="#DejaVuSans-33"/>
     <use x="63.623047" xlink:href="#DejaVuSans-39"/>
     <use x="127.246094" xlink:href="#DejaVuSans-33"/>
     <use x="190.869141" xlink:href="#DejaVuSans-36"/>
     <use x="254.492188" xlink:href="#DejaVuSans-35"/>
    </g>
   </g>
   <g id="text_34">
    <!-- 118096 -->
    <g transform="translate(173.323636 53.568)scale(0.0579 -0.0579)">
     <use xlink:href="#DejaVuSans-31"/>
     <use x="63.623047" xlink:href="#DejaVuSans-31"/>
     <use x="127.246094" xlink:href="#DejaVuSans-38"/>
     <use x="190.869141" xlink:href="#DejaVuSans-30"/>
     <use x="254.492188" xlink:href="#DejaVuSans-39"/>
     <use x="318.115234" xlink:href="#DejaVuSans-36"/>
    </g>
   </g>
   <g id="text_35">
    <!-- 59048 -->
    <g transform="translate(178.56 174.529024)scale(0.0579 -0.0579)">
     <use xlink:href="#DejaVuSans-35"/>
     <use x="63.623047" xlink:href="#DejaVuSans-39"/>
     <use x="127.246094" xlink:href="#DejaVuSans-30"/>
     <use x="190.869141" xlink:href="#DejaVuSans-34"/>
     <use x="254.492188" xlink:href="#DejaVuSans-38"/>
    </g>
   </g>
   <g id="text_36">
    <!-- 29524 -->
    <g transform="translate(183.796364 235.009536)scale(0.0579 -0.0579)">
     <use xlink:href="#DejaVuSans-32"/>
     <use x="63.623047" xlink:href="#DejaVuSans-39"/>
     <use x="127.246094" xlink:href="#DejaVuSans-35"/>
     <use x="190.869141" xlink:href="#DejaVuSans-32"/>
     <use x="254.492188" xlink:href="#DejaVuSans-34"/>
    </g>
   </g>
   <g id="text_37">
    <!-- 14762 -->
    <g transform="translate(189.032727 265.249792)scale(0.0579 -0.0579)">
     <use xlink:href="#DejaVuSans-31"/>
     <use x="63.623047" xlink:href="#DejaVuSans-34"/>
     <use x="127.246094" xlink:href="#DejaVuSans-37"/>
     <use x="190.869141" xlink:href="#DejaVuSans-36"/>
     <use x="254.492188" xlink:href="#DejaVuSans-32"/>
    </g>
   </g>
   <g id="text_38">
    <!-- 7381 -->
    <g transform="translate(194.269091 280.36992)scale(0.0579 -0.0579)">
     <use xlink:href="#DejaVuSans-37"/>
     <use x="63.623047" xlink:href="#DejaVuSans-33"/>
     <use x="127.246094" xlink:href="#DejaVuSans-38"/>
     <use x="190.869141" xlink:href="#DejaVuSans-31"/>
    </g>
   </g>
   <g id="text_39">
    <!-- 22144 -->
    <g transform="translate(199.505455 250.127616)scale(0.0579 -0.0579)">
     <use xlink:href="#DejaVuSans-32"/>
     <use x="63.623047" xlink:href="#DejaVuSans-32"/>
     <use x="127.246094" xlink:href="#DejaVuSans-31"/>
     <use x="190.869141" xlink:href="#DejaVuSans-34"/>
     <use x="254.492188" xlink:href="#DejaVuSans-34"/>
    </g>
   </g>
   <g id="text_40">
    <!-- 11072 -->
    <g transform="translate(204.741818 272.808832)scale(0.0579 -0.0579)">
     <use xlink:href="#DejaVuSans-31"/>
     <use x="63.623047" xlink:href="#DejaVuSans-31"/>
     <use x="127.246094" xlink:href="#DejaVuSans-30"/>
     <use x="190.869141" xlink:href="#DejaVuSans-37"/>
     <use x="254.492188" xlink:href="#DejaVuSans-32"/>
    </g>
   </g>
   <g id="text_41">
    <!-- 5536 -->
    <g transform="translate(209.978182 284.14944)scale(0.0579 -0.0579)">
     <use xlink:href="#DejaVuSans-35"/>
     <use x="63.623047" xlink:href="#DejaVuSans-35"/>
     <use x="127.246094" xlink:href="#DejaVuSans-33"/>
     <use x="190.869141" xlink:href="#DejaVuSans-36"/>
    </g>
   </g>
   <g id="text_42">
    <!-- 2768 -->
    <g transform="translate(215.214545 289.819744)scale(0.0579 -0.0579)">
     <use xlink:href="#DejaVuSans-32"/>
     <use x="63.623047" xlink:href="#DejaVuSans-37"/>
     <use x="127.246094" xlink:href="#DejaVuSans-36"/>
     <use x="190.869141" xlink:href="#DejaVuSans-38"/>
    </g>
   </g>
   <g id="text_43">
    <!-- 1384 -->
    <g transform="translate(220.450909 292.654896)scale(0.0579 -0.0579)">
     <use xlink:href="#DejaVuSans-31"/>
     <use x="63.623047" xlink:href="#DejaVuSans-33"/>
     <use x="127.246094" xlink:href="#DejaVuSans-38"/>
     <use x="190.869141" xlink:href="#DejaVuSans-34"/>
    </g>
   </g>
   <g id="text_44">
    <!-- 692 -->
    <g transform="translate(225.687273 294.072473)scale(0.0579 -0.0579)">
     <use xlink:href="#DejaVuSans-36"/>
     <use x="63.623047" xlink:href="#DejaVuSans-39"/>
     <use x="127.246094" xlink:href="#DejaVuSans-32"/>
    </g>
   </g>
   <g id="text_45">
    <!-- 346 -->
    <g transform="translate(230.923636 294.781261)scale(0.0579 -0.0579)">
     <use xlink:href="#DejaVuSans-33"/>
     <use x="63.623047" xlink:href="#DejaVuSans-34"/>
     <use x="127.246094" xlink:href="#DejaVuSans-36"/>
    </g>
   </g>
   <g id="text_46">
    <!-- 173 -->
    <g transform="translate(236.16 295.135655)scale(0.0579 -0.0579)">
     <use xlink:href="#DejaVuSans-31"/>
     <use x="63.623047" xlink:href="#DejaVuSans-37"/>
     <use x="127.246094" xlink:href="#DejaVuSans-33"/>
    </g>
   </g>
   <g id="text_47">
    <!-- 520 -->
    <g transform="translate(241.396364 294.424818)scale(0.0579 -0.0579)">
     <use xlink:href="#DejaVuSans-35"/>
     <use x="63.623047" xlink:href="#DejaVuSans-32"/>
     <use x="127.246094" xlink:href="#DejaVuSans-30"/>
    </g>
   </g>
   <g id="text_48">
    <!-- 260 -->
    <g transform="translate(246.632727 294.957433)scale(0.0579 -0.0579)">
     <use xlink:href="#DejaVuSans-32"/>
     <use x="63.623047" xlink:href="#DejaVuSans-36"/>
     <use x="127.246094" xlink:href="#DejaVuSans-30"/>
    </g>
   </g>
   <g id="text_49">
    <!-- 130 -->
    <g transform="translate(251.869091 295.223741)scale(0.0579 -0.0579)">
     <use xlink:href="#DejaVuSans-31"/>
     <use x="63.623047" xlink:href="#DejaVuSans-33"/>
     <use x="127.246094" xlink:href="#DejaVuSans-30"/>
    </g>
   </g>
   <g id="text_50">
    <!-- 65 -->
    <g transform="translate(257.105455 295.356895)scale(0.0579 -0.0579)">
     <use xlink:href="#DejaVuSans-36"/>
     <use x="63.623047" xlink:href="#DejaVuSans-35"/>
    </g>
   </g>
   <g id="text_51">
    <!-- 196 -->
    <g transform="translate(262.341818 295.088539)scale(0.0579 -0.0579)">
     <use xlink:href="#DejaVuSans-31"/>
     <use x="63.623047" xlink:href="#DejaVuSans-39"/>
     <use x="127.246094" xlink:href="#DejaVuSans-36"/>
    </g>
   </g>
   <g id="text_52">
    <!-- 98 -->
    <g transform="translate(267.578182 295.289294)scale(0.0579 -0.0579)">
     <use xlink:href="#DejaVuSans-39"/>
     <use x="63.623047" xlink:href="#DejaVuSans-38"/>
    </g>
   </g>
   <g id="text_53">
    <!-- 49 -->
    <g transform="translate(272.814545 295.389671)scale(0.0579 -0.0579)">
     <use xlink:href="#DejaVuSans-34"/>
     <use x="63.623047" xlink:href="#DejaVuSans-39"/>
    </g>
   </g>
   <g id="text_54">
    <!-- 148 -->
    <g transform="translate(278.050909 295.186868)scale(0.0579 -0.0579)">
     <use xlink:href="#DejaVuSans-31"/>
     <use x="63.623047" xlink:href="#DejaVuSans-34"/>
     <use x="127.246094" xlink:href="#DejaVuSans-38"/>
    </g>
   </g>
   <g id="text_55">
    <!-- 74 -->
    <g transform="translate(283.287273 295.338458)scale(0.0579 -0.0579)">
     <use xlink:href="#DejaVuSans-37"/>
     <use x="63.623047" xlink:href="#DejaVuSans-34"/>
    </g>
   </g>
   <g id="text_56">
    <!-- 37 -->
    <g transform="translate(288.523636 295.414253)scale(0.0579 -0.0579)">
     <use xlink:href="#DejaVuSans-33"/>
     <use x="63.623047" xlink:href="#DejaVuSans-37"/>
    </g>
   </g>
   <g id="text_57">
    <!-- 112 -->
    <g transform="translate(293.76 295.260614)scale(0.0579 -0.0579)">
     <use xlink:href="#DejaVuSans-31"/>
     <use x="63.623047" xlink:href="#DejaVuSans-31"/>
     <use x="127.246094" xlink:href="#DejaVuSans-32"/>
    </g>
   </g>
   <g id="text_58">
    <!-- 56 -->
    <g transform="translate(298.996364 295.375331)scale(0.0579 -0.0579)">
     <use xlink:href="#DejaVuSans-35"/>
     <use x="63.623047" xlink:href="#DejaVuSans-36"/>
    </g>
   </g>
   <g id="text_59">
    <!-- 28 -->
    <g transform="translate(304.232727 295.43269)scale(0.0579 -0.0579)">
     <use xlink:href="#DejaVuSans-32"/>
     <use x="63.623047" xlink:href="#DejaVuSans-38"/>
    </g>
   </g>
   <g id="text_60">
    <!-- 14 -->
    <g transform="translate(309.469091 295.461369)scale(0.0579 -0.0579)">
     <use xlink:href="#DejaVuSans-31"/>
     <use x="63.623047" xlink:href="#DejaVuSans-34"/>
    </g>
   </g>
   <g id="text_61">
    <!-- 7 -->
    <g transform="translate(314.705455 295.475709)scale(0.0579 -0.0579)">
     <use xlink:href="#DejaVuSans-37"/>
    </g>
   </g>
   <g id="text_62">
    <!-- 22 -->
    <g transform="translate(319.941818 295.444981)scale(0.0579 -0.0579)">
     <use xlink:href="#DejaVuSans-32"/>
     <use x="63.623047" xlink:href="#DejaVuSans-32"/>
    </g>
   </g>
   <g id="text_63">
    <!-- 11 -->
    <g transform="translate(325.178182 295.467515)scale(0.0579 -0.0579)">
     <use xlink:href="#DejaVuSans-31"/>
     <use x="63.623047" xlink:href="#DejaVuSans-31"/>
    </g>
   </g>
   <g id="text_64">
    <!-- 34 -->
    <g transform="translate(330.414545 295.420399)scale(0.0579 -0.0579)">
     <use xlink:href="#DejaVuSans-33"/>
     <use x="63.623047" xlink:href="#DejaVuSans-34"/>
    </g>
   </g>
   <g id="text_65">
    <!-- 17 -->
    <g transform="translate(335.650909 295.455224)scale(0.0579 -0.0579)">
     <use xlink:href="#DejaVuSans-31"/>
     <use x="63.623047" xlink:href="#DejaVuSans-37"/>
    </g>
   </g>
   <g id="text_66">
    <!-- 52 -->
    <g transform="translate(340.887273 295.383525)scale(0.0579 -0.0579)">
     <use xlink:href="#DejaVuSans-35"/>
     <use x="63.623047" xlink:href="#DejaVuSans-32"/>
    </g>
   </g>
   <g id="text_67">
    <!-- 26 -->
    <g transform="translate(346.123636 295.436787)scale(0.0579 -0.0579)">
     <use xlink:href="#DejaVuSans-32"/>
     <use x="63.623047" xlink:href="#DejaVuSans-36"/>
    </g>
   </g>
   <g id="text_68">
    <!-- 13 -->
    <g transform="translate(351.36 295.463418)scale(0.0579 -0.0579)">
     <use xlink:href="#DejaVuSans-31"/>
     <use x="63.623047" xlink:href="#DejaVuSans-33"/>
    </g>
   </g>
   <g id="text_69">
    <!-- 40 -->
    <g transform="translate(356.596364 295.408108)scale(0.0579 -0.0579)">
     <use xlink:href="#DejaVuSans-34"/>
     <use x="63.623047" xlink:href="#DejaVuSans-30"/>
    </g>
   </g>
   <g id="text_70">
    <!-- 20 -->
    <g transform="translate(361.832727 295.449078)scale(0.0579 -0.0579)">
     <use xlink:href="#DejaVuSans-32"/>
     <use x="63.623047" xlink:href="#DejaVuSans-30"/>
    </g>
   </g>
   <g id="text_71">
    <!-- 10 -->
    <g transform="translate(367.069091 295.469563)scale(0.0579 -0.0579)">
     <use xlink:href="#DejaVuSans-31"/>
     <use x="63.623047" xlink:href="#DejaVuSans-30"/>
    </g>
   </g>
   <g id="text_72">
    <!-- 5 -->
    <g transform="translate(372.305455 295.479806)scale(0.0579 -0.0579)">
     <use xlink:href="#DejaVuSans-35"/>
    </g>
   </g>
   <g id="text_73">
    <!-- 16 -->
    <g transform="translate(377.541818 295.457272)scale(0.0579 -0.0579)">
     <use xlink:href="#DejaVuSans-31"/>
     <use x="63.623047" xlink:href="#DejaVuSans-36"/>
    </g>
   </g>
   <g id="text_74">
    <!-- 8 -->
    <g transform="translate(382.778182 295.47366)scale(0.0579 -0.0579)">
     <use xlink:href="#DejaVuSans-38"/>
    </g>
   </g>
   <g id="text_75">
    <!-- 4 -->
    <g transform="translate(388.014545 295.481854)scale(0.0579 -0.0579)">
     <use xlink:href="#DejaVuSans-34"/>
    </g>
   </g>
   <g id="text_76">
    <!-- 2 -->
    <g transform="translate(393.250909 295.485951)scale(0.0579 -0.0579)">
     <use xlink:href="#DejaVuSans-32"/>
    </g>
   </g>
   <g id="text_77">
    <!-- 1 -->
    <g transform="translate(398.487273 295.488)scale(0.0579 -0.0579)">
     <use xlink:href="#DejaVuSans-31"/>
    </g>
   </g>
  </g>
 </g>
 <defs>
  <clipPath id="pe7d8d5e813">
   <rect height="266.112" width="357.12" x="57.6" y="41.472"/>
  </clipPath>
 </defs>
</svg>
